<svg id="Layer_1" data-name="Layer 1" xmlns="http://www.w3.org/2000/svg" viewBox="0 0 583.47 385.48"><defs><style>.cls-1{fill:#b6e2e7;}.cls-2{fill:#4a4748;}.cls-3{fill:#f5ab33;}.cls-4{fill:#f1a9a0;}.cls-5{fill:#fff;}.cls-6{fill:#7b4620;}.cls-7{fill:#60381c;}.cls-8{fill:#8c898a;}.cls-9{fill:#e38b25;}.cls-10{fill:#231f20;}</style></defs><title>Artboard 1</title><circle class="cls-1" cx="173.21" cy="171.15" r="162.43"/><path class="cls-2" d="M147.64,126.65c-6.16-.55-31.82-2.28-41.5,12.5-2.81,4.29-3.29,10.36-4.25,22.5,0,0-.79,10,.61,38.12h0l54.39-31.37Z"/><path class="cls-2" d="M107.64,143.8s-30.5,10.6-33.25,19.33c-2.63,8.38,17.15,50.66,17.15,50.66l12.23-3.65s-19.13-34.73-17.88-41.62,23.25-13.12,23.25-13.12Z"/><path class="cls-3" d="M131.06,296.9l2.33,35.33s-25.25,24.42-22.25,34.42l22.25-20.75,2.34,32.67s8.69-24.34,6.35-33.67l17.06,24.25s-3.41-28.25-12.75-39.25l3.07-33Z"/><path class="cls-3" d="M185.57,281.9l4.49,35-15.67,20.83s8.34-9.16,15.67-7.83,29.67,34.33,29.67,34.33-10-30-16.15-33c0,0,32.48,6.67,40.81,17.34,0,0-2-15.34-35-27.34,0,0,25-2,46.67,8,0,0-20.33-19-54.67-17.66l-3-36.34Z"/><path class="cls-4" d="M274.65,121.84s-60,15.28-55.76,20.42,7.55,25.39,27.78,28.89c0,0-49.69-11-48.78-32.25S274.65,121.84,274.65,121.84Z"/><path class="cls-5" d="M248.74,124.72S208.11,136.63,211,140.63s5.11,19.78,18.8,22.5c0,0-33.64-8.55-33-25.12S248.74,124.72,248.74,124.72Z"/><path class="cls-6" d="M249.61,117.65c-.4-2.37-3.05-42.92-27.5-55.72-20.77-10.88-41.26-6-44.53-4.92-1.27.4-19.73,6.54-30.87,24.42-6.67,10.71-8.63,22.27-11.08,36.69-1,6-1.81,24.14-1.81,24.14a.55.55,0,0,1-.21.45c-1.93,1.49-16.07,12.64-18.21,19.79-2.31,7.68-6.12,26.47-12,31.4C100.88,196,83,203.47,74.15,220.29c-1.49,2.84.19,45.18,22.24,63.61,37.64,31.44,102,13.5,112.25-17.39,1.28-3.86,21.11.88,31.13-6.5,13-9.57,7-25.84,5.58-29.29a.56.56,0,0,0-.86-.23l-11.65,8.64-.07.05a12.49,12.49,0,0,1-9,1.27l-16.09-3.77a9,9,0,0,1-3.26-1.06l-14.67-8.19-.13-.05L147.8,216.17a.59.59,0,0,1-.27-.17l-.21-.23a17.22,17.22,0,0,1-2.59-19.55L153.39,184c.12-.22,63.24,7.68,63.24,7.68a.5.5,0,0,0,.21,0c1.34-.32,15.58-3.52,22.16,2.33,6.91,6.14,6.91,12.92,6.91,12.92l-6.84-34.14a.57.57,0,0,0-.38-.43c-3.63-1.14-37.11-12-43.94-24.55l0-.1c-4.24-11.52-3-15.21-3.21-16.86-.05-.33,16.77-3,22.94-4.4C220.84,125,249.66,117.92,249.61,117.65Z"/><path class="cls-7" d="M175.7,131.5c0-4.76,4.5-8.62,10-8.62a11.59,11.59,0,0,1,3.91.67,11,11,0,0,0-6.46-2c-5.51,0-10,3.83-10,8.57a8.58,8.58,0,0,0,5.71,7.74A8.11,8.11,0,0,1,175.7,131.5Z"/><path class="cls-7" d="M174.74,52.1a7,7,0,0,1,8.84,4.41A7.15,7.15,0,0,1,184,59.3a7.11,7.11,0,0,0,0-4.86,7,7,0,0,0-8.78-4.39,6.8,6.8,0,0,0-4.46,5.87A6.71,6.71,0,0,1,174.74,52.1Z"/><path class="cls-7" d="M175.75,39.79c4.54,0,8.29,6.47,8.38,14.56a24.11,24.11,0,0,1-.58,5.7,22.12,22.12,0,0,0,1.85-9.45c-.09-8-3.82-14.51-8.34-14.46-3.26,0-6,3.48-7.28,8.42C171.25,41.66,173.37,39.82,175.75,39.79Z"/><path class="cls-3" d="M191.46,130.22a1.79,1.79,0,0,0-1.07,1.48c-.35,3.73.43,16.47,12.13,25.7,9.77,7.71,34.52,20.57,58.27,16.68,13.27-2.18,28.21-7.76,25.1-7.18-27.66,5.17-46.33,1.62-53.37-1-8.65-3.21-30.83-16.67-28.46-25.83,1.68-6.5,39.08-18.5,82-18.5,18.67,0,65.21,15.69,67,16.16,0,0-38.83-21.93-66-23.5C262.93,112.84,200.78,126.29,191.46,130.22Z"/><path class="cls-7" d="M131.17,147.93c-2.85,1.15,22.89,19.34,28.94,27.6,1.15,1.57-8.12,12.79-8.12,12.79s-9.41,9.58-10.87,15.8c-1.26,5.4,2.47,7.51,6.77,10.28,4,2.58,25.32,10.31,25.32,10.31s-4.47,17.36-20.72,19.86-30.29-1.2-40.25-13c-8.25-9.78-12.14-21.51-9.19-34.75s10.55-43.28,28.12-48.89"/><path class="cls-7" d="M215.52,171.15l.32,17.63,2.22,53.65L184.6,227.31s-1.48,31.29,17.67,39.35c21.42,9,39.91-5.33,39.91-5.33s2.12-16-4.9-29.84c-1-1.9-2.78-3.59-2.38-5.5,2.19-10.46,2.37-23.63,0-38-2.82-16.78-4.42-12-4.42-12Z"/><path class="cls-6" d="M133.82,142.26s12.4,19.87,23.07,26.14c6.6,3.87-2.25,14.25-2.25,14.25s-9.41,9.58-10.87,15.8c-1.26,5.4-.54,14.78,3.76,17.55,4,2.58,24.14,6.56,24.14,6.56s-.28,13.84-16.53,16.34-30.29-1.2-40.25-13c-8.25-9.78-12.14-21.51-9.19-34.75s10.55-43.28,28.12-48.89"/><path class="cls-6" d="M217.52,168.59l1.12,22.33V191l-1.22,46.78a.82.82,0,0,1-1.13.74L189,227.35a.83.83,0,0,0-1.14.76c0,5.51.44,30.84,18.76,37.31,17.54,6.19,33.56-.6,38.68-7,8.37-10.5,8.18-24.89,3.78-36.17-3.58-9.19-1.47-18.1-6.33-31.28-4.27-11.56-4.86-16.79-5.2-16.93l-17.79-2.62C219.17,171.18,217.49,168,217.52,168.59Z"/><path class="cls-2" d="M216.47,239.06,151,217.45a11.49,11.49,0,0,1-8.6-13.72l2.56-10.95a11.48,11.48,0,0,1,13.79-8.49l67.57,8.27c3,.71,6.78,13.05,4.4,24.54C228.24,228.87,219.59,239.79,216.47,239.06Z"/><path class="cls-8" d="M154.87,190.06l49.78,6.75c-.59-1.83-1.59-3.13-2.54-3.32L157.79,188c-3.27-.64-6.63.17-8.33,1.85A16.57,16.57,0,0,1,154.87,190.06Z"/><path class="cls-8" d="M201.21,212.45c2-5.67,6.36-10.46,9.18-12.09l-1.46-.55c-2.06-.54-8.43,4.9-10.87,11.74-2.49,7-1,15.43,1.11,16l1.53.27C199.49,224.8,199.18,218.2,201.21,212.45Z"/><path class="cls-3" d="M214.28,206.53a10.7,10.7,0,0,0-6.71,6.09,12.31,12.31,0,0,0,.57,10.78c2,3.75,9,5.83,23.3,4.83s22.62-2.27,39.62,10.87,35.51,17.65,54.83,19.14c4.08.32,25.54-1.87,22.84-3-5.08-2.14-20.48-13.29-26.38-17.62a.46.46,0,0,1,.42-.81c11.49,3.82,32.87,10.93,39,14.38a136.57,136.57,0,0,0,14.65,7.05c11.34,4.67,26.34,11.34,40,9.34s6.34-2.15,6.34-2.15-32.34-12.19-31.67-24.19c.28-5.08,35.8,23,57.33,29.92,29.31,9.35,106.75-16.25,89-14.25-32,3.6-67,8.33-26-15.67s59.75-46.5,59.75-50.83-25.75,6.5-43.75-2.83-49.66-5-56,0,15.34-30,20-32.67-18.66,11.33-29.66,11.33-44.67,14.34-44.67,14.34-9-25.08,21.08-30.42c35.25-6.25-40.08-2.92-64.75,9.08S341.06,186.57,341,182.82c-.07-2.4,3.21-10.58,12.11-15.92,14.58-8.75-27.67,2-35,5.33s-40.33,26.34-42.67,27-19.35,9.34-26.34,7.67C242.94,205.44,225.44,203.1,214.28,206.53Z"/><path class="cls-9" d="M259.39,216.12s69.49-33.51,64.27-29.55c-5.93,4.5-12.6,9.6-9.6,14.47s21,7.86,38-1.47,38.09-32.15,50.67-32.67c1,0-28.34,22.83-30.34,33.33-2.6,13.68,71.5-21.77,81.5-21.5,6.17.17-37.16,17.5-29.5,25.5s67.52-9.36,89.34-5c23.6,4.72,23.66,3.84,22.23,3.87l-.46,0c-3.79.53-59.39,8.76-74.44,16.76-15.67,8.33-7,25.33-1.67,28.33s-15-.33-22.33-9.66-29.22-18-42.44-15.34-18.56,1.34-16.89,9,.33,10,.33,10-15.33-22.66-36.33-23-31.17-1.83-31.17-1.83-22.83-4.83-16.67,3.17,27.17,23.66,27.17,23.66S270.73,232.68,259.39,216.12Z"/><ellipse class="cls-5" cx="196.79" cy="107.83" rx="8.96" ry="13.05"/><ellipse class="cls-5" cx="226.95" cy="105.29" rx="7.22" ry="10.51"/><ellipse class="cls-10" cx="196.83" cy="113.05" rx="4.14" ry="5.22"/><ellipse class="cls-10" cx="226.95" cy="110.81" rx="3.54" ry="4.46"/><path class="cls-7" d="M203.85,102a.86.86,0,0,1-1.35.18,74.46,74.46,0,0,0-24.82-16.3.54.54,0,0,1-.06-1l6.61-3.62a.93.93,0,0,1,1.16.21c1.61,1.82,3.39,3.68,5.35,5.53a83.44,83.44,0,0,0,14.54,11,.79.79,0,0,1,.27,1.06Z"/><circle class="cls-5" cx="195.36" cy="111.57" r="1.48"/><circle class="cls-5" cx="225.46" cy="108.98" r="1.12"/><path class="cls-7" d="M219.35,101.15c.25.43.73.57,1,.29A35.33,35.33,0,0,1,229,93.9a34.22,34.22,0,0,1,7-3.26c.28-.09.24-.57-.06-.8l-5-3.69a.53.53,0,0,0-.79,0,44.45,44.45,0,0,1-3.16,4,39.52,39.52,0,0,1-9,7.51.62.62,0,0,0-.08.84Z"/></svg>