<svg id="Layer_1" data-name="Layer 1" xmlns="http://www.w3.org/2000/svg" viewBox="0 0 802.08 385.48"><defs><style>.cls-1{fill:#b6e2e7;}.cls-2{fill:#4a4748;}.cls-3{fill:#f5ab33;}.cls-4{fill:#f1a9a0;}.cls-5{fill:#fff;}.cls-6{fill:#7b4620;}.cls-7{fill:#60381c;}.cls-8{fill:#8c898a;}.cls-9{fill:#e38b25;}.cls-10{fill:#231f20;}</style></defs><title>Roger</title><circle class="cls-1" cx="391.82" cy="171.15" r="162.43"/><path class="cls-2" d="M366.25,126.65c-6.16-.55-31.82-2.28-41.5,12.5-2.81,4.29-3.29,10.36-4.25,22.5,0,0-.79,10,.61,38.12h0L375.5,168.4Z"/><path class="cls-2" d="M326.25,143.8s-30.5,10.6-33.25,19.33c-2.64,8.38,17.15,50.66,17.15,50.66l12.22-3.65s-19.12-34.73-17.87-41.62,23.25-13.12,23.25-13.12Z"/><path class="cls-3" d="M349.67,296.9,352,332.23s-25.25,24.42-22.25,34.42L352,345.9l2.33,32.67s8.7-24.34,6.35-33.67l17.07,24.25S374.33,340.9,365,329.9l3.06-33Z"/><path class="cls-3" d="M404.18,281.9l4.49,35L393,337.73s8.33-9.16,15.67-7.83,29.67,34.33,29.67,34.33-10-30-16.16-33c0,0,32.49,6.67,40.82,17.34,0,0-2-15.34-35-27.34,0,0,25-2,46.67,8,0,0-20.34-19-54.67-17.66l-3-36.34Z"/><path class="cls-4" d="M493.26,121.84s-60,15.28-55.76,20.42,7.54,25.39,27.77,28.89c0,0-49.68-11-48.77-32.25S493.26,121.84,493.26,121.84Z"/><path class="cls-5" d="M467.35,124.72s-40.63,11.91-37.75,15.91,5.1,19.78,18.8,22.5c0,0-33.64-8.55-33-25.12S467.35,124.72,467.35,124.72Z"/><path class="cls-6" d="M468.22,117.65c-.41-2.37-3.05-42.92-27.5-55.72C420,51.05,399.46,56,396.19,57c-1.28.4-19.73,6.54-30.87,24.42-6.68,10.71-8.64,22.27-11.08,36.69-1,6-1.81,24.14-1.81,24.14a.56.56,0,0,1-.22.45c-1.92,1.49-16.06,12.64-18.21,19.79-2.3,7.68-6.12,26.47-12,31.4-2.51,2.11-20.39,9.57-29.24,26.39-1.5,2.84.18,45.18,22.24,63.61,37.63,31.44,102,13.5,112.25-17.39,1.28-3.86,21.11.88,31.13-6.5,13-9.57,7-25.84,5.58-29.29a.57.57,0,0,0-.87-.23l-11.64,8.64-.08.05a12.46,12.46,0,0,1-8.95,1.27l-16.09-3.77a9,9,0,0,1-3.26-1.06l-14.67-8.19-.14-.05-41.85-11.21a.55.55,0,0,1-.27-.17l-.22-.23a17.24,17.24,0,0,1-2.59-19.55L372,184c.11-.22,63.23,7.68,63.23,7.68a.55.55,0,0,0,.22,0c1.34-.32,15.58-3.52,22.16,2.33,6.91,6.14,6.91,12.92,6.91,12.92l-6.84-34.14a.57.57,0,0,0-.39-.43c-3.62-1.14-37.1-12-43.93-24.55l-.05-.1c-4.24-11.52-3-15.21-3.21-16.86-.05-.33,16.78-3,22.94-4.4C439.44,125,468.26,117.92,468.22,117.65Z"/><path class="cls-7" d="M394.31,131.5c0-4.76,4.49-8.62,10-8.62a11.57,11.57,0,0,1,3.9.67,11,11,0,0,0-6.46-2c-5.51,0-10,3.83-10,8.57a8.57,8.57,0,0,0,5.71,7.74A8.08,8.08,0,0,1,394.31,131.5Z"/><path class="cls-7" d="M393.34,52.1a7,7,0,0,1,8.85,4.41,7.54,7.54,0,0,1,.41,2.79,7.23,7.23,0,0,0,0-4.86,7,7,0,0,0-8.79-4.39,6.81,6.81,0,0,0-4.46,5.87A6.76,6.76,0,0,1,393.34,52.1Z"/><path class="cls-7" d="M394.35,39.79c4.54,0,8.3,6.47,8.39,14.56a24.64,24.64,0,0,1-.58,5.7A22,22,0,0,0,404,50.6c-.09-8-3.82-14.51-8.33-14.46-3.26,0-6,3.48-7.28,8.42C389.85,41.66,392,39.82,394.35,39.79Z"/><path class="cls-3" d="M410.07,130.22A1.78,1.78,0,0,0,409,131.7c-.36,3.73.43,16.47,12.13,25.7,9.77,7.71,34.52,20.57,58.27,16.68,13.27-2.18,28.21-7.76,25.1-7.18-27.67,5.17-46.33,1.62-53.37-1-8.65-3.21-30.84-16.67-28.46-25.83,1.68-6.5,39.08-18.5,82-18.5,18.66,0,65.2,15.69,67,16.16,0,0-38.84-21.93-66-23.5C481.54,112.84,419.38,126.29,410.07,130.22Z"/><path class="cls-7" d="M349.78,147.93c-2.86,1.15,22.89,19.34,28.94,27.6,1.15,1.57-8.12,12.79-8.12,12.79s-9.42,9.58-10.87,15.8c-1.26,5.4,2.47,7.51,6.77,10.28,4,2.58,25.32,10.31,25.32,10.31s-4.47,17.36-20.72,19.86-30.29-1.2-40.25-13c-8.25-9.78-12.14-21.51-9.2-34.75s10.56-43.28,28.13-48.89"/><path class="cls-7" d="M434.13,171.15l.32,17.63,2.22,53.65L403.2,227.31s-1.48,31.29,17.67,39.35c21.42,9,39.92-5.33,39.92-5.33s2.12-16-4.91-29.84c-1-1.9-2.77-3.59-2.37-5.5,2.18-10.46,2.37-23.63,0-38-2.82-16.78-4.42-12-4.42-12Z"/><path class="cls-6" d="M352.43,142.26s12.4,19.87,23.07,26.14c6.6,3.87-2.25,14.25-2.25,14.25s-9.42,9.58-10.87,15.8c-1.26,5.4-.55,14.78,3.76,17.55,4,2.58,24.13,6.56,24.13,6.56S390,236.4,373.75,238.9s-30.29-1.2-40.25-13c-8.25-9.78-12.14-21.51-9.2-34.75s10.56-43.28,28.13-48.89"/><path class="cls-6" d="M436.12,168.59l1.13,22.33V191L436,237.76a.83.83,0,0,1-1.14.74l-27.31-11.15a.83.83,0,0,0-1.14.76c0,5.51.43,30.84,18.76,37.31,17.53,6.19,33.55-.6,38.68-7,8.37-10.5,8.17-24.89,3.78-36.17-3.58-9.19-1.48-18.1-6.34-31.28-4.26-11.56-4.85-16.79-5.19-16.93l-17.79-2.62C437.78,171.18,436.09,168,436.12,168.59Z"/><path class="cls-2" d="M435.08,239.06l-65.5-21.61a11.48,11.48,0,0,1-8.6-13.72l2.56-10.95a11.48,11.48,0,0,1,13.79-8.49l67.56,8.27c3.05.71,6.79,13.05,4.4,24.54C446.85,228.87,438.2,239.79,435.08,239.06Z"/><path class="cls-8" d="M373.48,190.06l49.78,6.75c-.6-1.83-1.6-3.13-2.55-3.32L376.4,188c-3.27-.64-6.63.17-8.34,1.85A16.63,16.63,0,0,1,373.48,190.06Z"/><path class="cls-8" d="M419.82,212.45c2-5.67,6.36-10.46,9.18-12.09l-1.47-.55c-2-.54-8.43,4.9-10.86,11.74-2.5,7-1,15.43,1.11,16l1.53.27C418.1,224.8,417.78,218.2,419.82,212.45Z"/><path class="cls-3" d="M432.89,206.53a10.7,10.7,0,0,0-6.71,6.09,12.31,12.31,0,0,0,.57,10.78c2,3.75,9,5.83,23.3,4.83s22.62-2.27,39.62,10.87,35.51,17.65,54.83,19.14c4.07.32,25.54-1.87,22.83-3-5.08-2.14-20.47-13.29-26.37-17.62a.46.46,0,0,1,.42-.81c11.49,3.82,32.86,10.93,39,14.38A137.59,137.59,0,0,0,595,258.23c11.33,4.67,26.33,11.34,40,9.34s6.33-2.15,6.33-2.15S609,253.23,609.67,241.23c.28-5.08,35.8,23,57.33,29.92,29.31,9.35,106.75-16.25,89-14.25-32,3.6-67,8.33-26-15.67s59.75-46.5,59.75-50.83S764,196.9,746,187.57s-49.67-5-56,0,15.33-30,20-32.67-18.67,11.33-29.67,11.33-44.66,14.34-44.66,14.34-9-25.08,21.08-30.42c35.25-6.25-40.08-2.92-64.75,9.08s-32.33,27.34-32.44,23.59c-.07-2.4,3.2-10.58,12.11-15.92,14.58-8.75-27.67,2-35,5.33s-40.34,26.34-42.67,27-19.35,9.34-26.34,7.67C461.55,205.44,444,203.1,432.89,206.53Z"/><path class="cls-9" d="M478,216.12s69.48-33.51,64.27-29.55c-5.94,4.5-12.6,9.6-9.6,14.47s21,7.86,38-1.47,38.08-32.15,50.66-32.67c1,0-28.33,22.83-30.33,33.33-2.6,13.68,71.5-21.77,81.5-21.5,6.17.17-37.17,17.5-29.5,25.5s67.51-9.36,89.33-5c23.61,4.72,23.67,3.84,22.23,3.87l-.45,0c-3.8.53-59.4,8.76-74.44,16.76-15.67,8.33-7,25.33-1.67,28.33s-15-.33-22.33-9.66-29.23-18-42.45-15.34-18.55,1.34-16.89,9,.34,10,.34,10-15.34-22.66-36.34-23-31.16-1.83-31.16-1.83-22.84-4.83-16.67,3.17,27.17,23.66,27.17,23.66S489.33,232.68,478,216.12Z"/><ellipse class="cls-5" cx="415.39" cy="107.83" rx="8.96" ry="13.05"/><ellipse class="cls-5" cx="445.55" cy="105.29" rx="7.22" ry="10.51"/><ellipse class="cls-10" cx="415.44" cy="113.05" rx="4.14" ry="5.22"/><ellipse class="cls-10" cx="445.55" cy="110.81" rx="3.54" ry="4.46"/><path class="cls-7" d="M422.45,102a.85.85,0,0,1-1.34.18A75.42,75.42,0,0,0,407,91.2a74.32,74.32,0,0,0-10.76-5.34.54.54,0,0,1,0-1l6.61-3.62a.94.94,0,0,1,1.16.21c1.61,1.82,3.39,3.68,5.35,5.53a83.4,83.4,0,0,0,14.53,11,.77.77,0,0,1,.27,1.06Z"/><circle class="cls-5" cx="413.96" cy="111.57" r="1.48"/><circle class="cls-5" cx="444.06" cy="108.98" r="1.12"/><path class="cls-7" d="M438,101.15c.25.43.72.57,1,.29a35.58,35.58,0,0,1,8.7-7.54,34.22,34.22,0,0,1,7-3.26c.28-.09.24-.57-.06-.8l-5-3.69a.53.53,0,0,0-.79,0,46.32,46.32,0,0,1-3.16,4,39.52,39.52,0,0,1-9,7.51c-.24.14-.27.51-.08.84Z"/></svg>